<svg width="118" height="118" viewBox="0 0 118 118" fill="none" xmlns="http://www.w3.org/2000/svg">
<g clip-path="url(#clip0_0_410)">
<path d="M36.7351 19.5684H52.0926C53.0474 19.5684 53.8211 18.7945 53.8211 17.8399C53.8211 16.8853 53.0474 16.1114 52.0926 16.1114H46.0154V10.066C48.0285 9.35311 49.4747 7.43331 49.4747 5.1814C49.4747 2.32428 47.1474 0 44.2869 0C41.4263 0 39.099 2.32428 39.099 5.1814C39.099 7.43331 40.5452 9.35334 42.5583 10.066V16.1114H36.7349C35.78 16.1114 35.0063 16.8853 35.0063 17.8399C35.0063 18.7945 35.7803 19.5684 36.7351 19.5684ZM44.2869 3.45703C45.2412 3.45703 46.0177 4.23048 46.0177 5.1814C46.0177 6.13231 45.2412 6.90577 44.2869 6.90577C43.3325 6.90577 42.556 6.13231 42.556 5.1814C42.556 4.23048 43.3327 3.45703 44.2869 3.45703Z" fill="#F3BF19"/>
<path d="M23.1285 99.0882H21.1838C20.1123 99.0882 19.2402 98.2163 19.2402 97.1449V65.8491C19.2402 64.8945 18.4665 64.1205 17.5117 64.1205C16.5569 64.1205 15.7832 64.8945 15.7832 65.8491V71.8032H10.066C9.35311 69.7903 7.43331 68.3441 5.18163 68.3441C2.32451 68.3441 0 70.6714 0 73.532C0 76.3925 2.32451 78.7198 5.1814 78.7198C7.43331 78.7198 9.35311 77.2736 10.066 75.2605H15.783V97.1449C15.783 100.123 18.2056 102.545 21.1835 102.545H23.1282C24.0831 102.545 24.8567 101.771 24.8567 100.817C24.8567 99.8621 24.0831 99.0882 23.1285 99.0882ZM5.1814 75.2626C4.23048 75.2626 3.45703 74.4861 3.45703 73.5317C3.45703 72.5774 4.23048 71.8012 5.1814 71.8012C6.13208 71.8012 6.90554 72.5776 6.90554 73.5317C6.90577 74.4863 6.13208 75.2626 5.1814 75.2626Z" fill="#F3BF19"/>
<path d="M52.0924 99.0882H36.7349C35.78 99.0882 35.0063 99.8621 35.0063 100.817C35.0063 101.771 35.78 102.545 36.7349 102.545H42.5583V107.934C40.5452 108.647 39.099 110.567 39.099 112.819C39.099 115.675 41.4263 118 44.2869 118C47.1474 118 49.4747 115.676 49.4747 112.819C49.4747 110.567 48.0285 108.647 46.0154 107.934V102.545H52.0924C53.0472 102.545 53.8209 101.771 53.8209 100.817C53.8209 99.8621 53.0472 99.0882 52.0924 99.0882ZM44.2869 114.543C43.3325 114.543 42.556 113.77 42.556 112.819C42.556 111.868 43.3325 111.094 44.2869 111.094C45.2412 111.094 46.0177 111.868 46.0177 112.819C46.0177 113.77 45.2412 114.543 44.2869 114.543Z" fill="#F3BF19"/>
<path d="M81.3919 99.0882H65.7594C64.8046 99.0882 64.0309 99.8621 64.0309 100.817C64.0309 101.771 64.8046 102.545 65.7594 102.545H71.8401V107.934C69.8269 108.647 68.3807 110.567 68.3807 112.819C68.3807 115.675 70.708 118 73.5686 118C76.4292 118 78.7564 115.676 78.7564 112.819C78.7564 110.567 77.3103 108.647 75.2971 107.934V102.545H81.3919C82.3467 102.545 83.1204 101.771 83.1204 100.817C83.1204 99.8621 82.3467 99.0882 81.3919 99.0882ZM73.5686 114.543C72.6142 114.543 71.8378 113.77 71.8378 112.819C71.8378 111.868 72.6142 111.094 73.5686 111.094C74.523 111.094 75.2994 111.868 75.2994 112.819C75.2994 113.77 74.523 114.543 73.5686 114.543Z" fill="#F3BF19"/>
<path d="M100.488 89.6542C99.5335 89.6542 98.7598 90.4281 98.7598 91.3827V97.1449C98.7598 98.2163 97.8882 99.0882 96.8165 99.0882H94.978C94.0232 99.0882 93.2495 99.8621 93.2495 100.817C93.2495 101.771 94.0232 102.545 94.978 102.545H96.8165C99.7941 102.545 102.217 100.123 102.217 97.1449V91.3827C102.217 90.4281 101.443 89.6542 100.488 89.6542Z" fill="#F3BF19"/>
<path d="M94.978 19.5684H96.8165C97.8879 19.5684 98.7598 20.4403 98.7598 21.5117V52.1307C98.7598 53.0853 99.5335 53.8592 100.488 53.8592C101.443 53.8592 102.217 53.0853 102.217 52.1307V45.9788H107.934C108.647 47.9919 110.567 49.4381 112.819 49.4381C115.676 49.4381 118 47.1108 118 44.2502C118 41.3897 115.676 39.0624 112.819 39.0624C110.567 39.0624 108.647 40.5086 107.934 42.5217H102.217V21.5117C102.217 18.5341 99.7941 16.1114 96.8165 16.1114H94.978C94.0232 16.1114 93.2495 16.8853 93.2495 17.8399C93.2495 18.7945 94.0234 19.5684 94.978 19.5684ZM112.819 42.5194C113.77 42.5194 114.543 43.2959 114.543 44.2502C114.543 45.2046 113.77 45.9811 112.819 45.9811C111.868 45.9811 111.094 45.2046 111.094 44.2502C111.094 43.2959 111.868 42.5194 112.819 42.5194Z" fill="#F3BF19"/>
<path d="M65.7594 19.5684H81.3919C82.3467 19.5684 83.1204 18.7945 83.1204 17.8399C83.1204 16.8853 82.3467 16.1114 81.3919 16.1114H75.2971V10.066C77.3103 9.35311 78.7564 7.43331 78.7564 5.1814C78.7564 2.32428 76.4292 0 73.5686 0C70.708 0 68.3807 2.32428 68.3807 5.1814C68.3807 7.43331 69.8269 9.35334 71.8401 10.066V16.1114H65.7594C64.8046 16.1114 64.0309 16.8853 64.0309 17.8399C64.0309 18.7945 64.8048 19.5684 65.7594 19.5684ZM73.5686 3.45703C74.523 3.45703 75.2994 4.23048 75.2994 5.1814C75.2994 6.13231 74.523 6.90577 73.5686 6.90577C72.6142 6.90577 71.8378 6.13231 71.8378 5.1814C71.8378 4.23048 72.6142 3.45703 73.5686 3.45703Z" fill="#F3BF19"/>
<path d="M53.8121 25.7182C53.8121 28.5754 56.1394 30.8996 59 30.8996C61.8606 30.8996 64.1878 28.5754 64.1878 25.7182C64.1878 23.4663 62.7416 21.5465 60.7285 20.8337V1.72852C60.7285 0.773914 59.9548 0 59 0C58.0452 0 57.2715 0.773914 57.2715 1.72852V20.8337C55.2583 21.5465 53.8121 23.4663 53.8121 25.7182ZM59 23.9939C59.9544 23.9939 60.7308 24.7673 60.7308 25.7182C60.7308 26.6692 59.9544 27.4426 59 27.4426C58.0456 27.4426 57.2692 26.6692 57.2692 25.7182C57.2692 24.7673 58.0456 23.9939 59 23.9939Z" fill="#F3BF19"/>
<path d="M24.7484 25.7182C24.7484 28.5754 27.0757 30.8996 29.9363 30.8996C32.7966 30.8996 35.1239 28.5754 35.1239 25.7182C35.1239 23.4663 33.6777 21.5465 31.6648 20.8337V1.72852C31.6648 0.773914 30.8911 0 29.9363 0C28.9814 0 28.2077 0.773914 28.2077 1.72852V20.8337C26.1946 21.5465 24.7484 23.4663 24.7484 25.7182ZM29.9363 23.9939C30.8906 23.9939 31.6669 24.7673 31.6669 25.7182C31.6669 26.6692 30.8906 27.4426 29.9363 27.4426C28.9819 27.4426 28.2054 26.6692 28.2054 25.7182C28.2054 24.7673 28.9819 23.9939 29.9363 23.9939Z" fill="#F3BF19"/>
<path d="M82.9496 25.7182C82.9496 28.5754 85.2769 30.8996 88.1372 30.8996C90.9978 30.8996 93.3251 28.5754 93.3251 25.7182C93.3251 23.4663 91.8789 21.5465 89.8657 20.8337V1.72852C89.8657 0.773914 89.092 0 88.1372 0C87.1824 0 86.4087 0.773914 86.4087 1.72852V20.8337C84.3958 21.5465 82.9496 23.4663 82.9496 25.7182ZM88.1372 23.9939C89.0916 23.9939 89.868 24.7673 89.868 25.7182C89.868 26.6692 89.0916 27.4426 88.1372 27.4426C87.1828 27.4426 86.4066 26.6692 86.4066 25.7182C86.4066 24.7673 87.1828 23.9939 88.1372 23.9939Z" fill="#F3BF19"/>
<path d="M64.1878 92.2818C64.1878 89.4246 61.8606 87.1004 59 87.1004C56.1394 87.1004 53.8121 89.4246 53.8121 92.2818C53.8121 94.5337 55.2583 96.4535 57.2715 97.1663V116.271C57.2715 117.226 58.0452 118 59 118C59.9548 118 60.7285 117.226 60.7285 116.271V97.1663C62.7416 96.4535 64.1878 94.5337 64.1878 92.2818ZM59 94.0061C58.0456 94.0061 57.2692 93.2327 57.2692 92.2818C57.2692 91.3309 58.0456 90.5574 59 90.5574C59.9544 90.5574 60.7308 91.3309 60.7308 92.2818C60.7308 93.2327 59.9544 94.0061 59 94.0061Z" fill="#F3BF19"/>
<path d="M35.1236 92.2818C35.1236 89.4246 32.7964 87.1004 29.936 87.1004C27.0754 87.1004 24.7482 89.4246 24.7482 92.2818C24.7482 94.5337 26.1944 96.4535 28.2075 97.1663V116.271C28.2075 117.226 28.9812 118 29.936 118C30.8909 118 31.6645 117.226 31.6645 116.271V97.1663C33.6777 96.4535 35.1236 94.5337 35.1236 92.2818ZM29.9363 94.0061C28.9819 94.0061 28.2054 93.2327 28.2054 92.2818C28.2054 91.3309 28.9819 90.5574 29.9363 90.5574C30.8906 90.5574 31.6668 91.3309 31.6668 92.2818C31.6666 93.2327 30.8904 94.0061 29.9363 94.0061Z" fill="#F3BF19"/>
<path d="M93.3251 92.2818C93.3251 89.4246 90.9978 87.1004 88.1372 87.1004C85.2769 87.1004 82.9496 89.4246 82.9496 92.2818C82.9496 94.5337 84.3958 96.4535 86.4087 97.1663V116.271C86.4087 117.226 87.1824 118 88.1372 118C89.092 118 89.8657 117.226 89.8657 116.271V97.1663C91.8789 96.4535 93.3251 94.5337 93.3251 92.2818ZM88.1372 94.0061C87.1828 94.0061 86.4066 93.2327 86.4066 92.2818C86.4066 91.3309 87.1828 90.5574 88.1372 90.5574C89.0916 90.5574 89.868 91.3309 89.868 92.2818C89.868 93.2327 89.0913 94.0061 88.1372 94.0061Z" fill="#F3BF19"/>
<path d="M38.1732 52.4764C37.2184 52.4764 36.4447 53.2503 36.4447 54.2049V77.7959C36.4447 78.2709 36.6327 78.7251 36.9778 79.0517C37.3225 79.3781 37.777 79.5493 38.2536 79.5223H38.291C39.1121 79.5223 39.7798 80.1875 39.7798 81.0049C39.7798 81.9595 40.5535 82.7334 41.5083 82.7334H76.6089C77.5638 82.7334 78.3375 81.9595 78.3375 81.0049C78.3375 80.1875 79.0051 79.5223 79.8263 79.5223C80.7811 79.5223 81.5548 78.7484 81.5548 77.7938V40.863C81.5548 39.9084 80.7811 39.1345 79.8263 39.1345C79.0051 39.1345 78.3375 38.4694 78.3375 37.6519C78.3375 36.6973 77.5638 35.9234 76.6089 35.9234H41.5083C40.5535 35.9234 39.7798 36.6973 39.7798 37.6519C39.7798 38.4694 39.1121 39.1345 38.291 39.1345L38.2684 39.135C37.7936 39.1096 37.3299 39.279 36.9849 39.6054C36.6399 39.9317 36.4445 40.386 36.4445 40.861V46.1484C36.4445 47.103 37.2181 47.8769 38.173 47.8769C39.1278 47.8769 39.9015 47.103 39.9015 46.1484V42.3228C41.2951 41.8423 42.4083 40.7559 42.9243 39.3807H75.1927C75.6942 40.7169 76.7594 41.7803 78.0975 42.2804V76.3769C76.7592 76.877 75.694 77.9404 75.1927 79.2766H42.9245C42.4085 77.9014 41.2954 76.815 39.9017 76.3345V54.2051C39.9017 53.2503 39.1278 52.4764 38.1732 52.4764Z" fill="#F3BF19"/>
<path d="M59 72.8811C59.9549 72.8811 60.7285 72.1072 60.7285 71.1526V47.5042C60.7285 46.5496 59.9549 45.7757 59 45.7757H48.8753C47.9205 45.7757 47.1468 46.5496 47.1468 47.5042V71.1526C47.1468 72.1072 47.9205 72.8811 48.8753 72.8811C49.8301 72.8811 50.6038 72.1072 50.6038 71.1526V61.0569H57.2715V71.1526C57.2715 72.1072 58.0452 72.8811 59 72.8811ZM50.6038 57.5999V49.2327H57.2715V57.5999H50.6038Z" fill="#F3BF19"/>
<path d="M70.8533 71.1526V47.5042C70.8533 46.5496 70.0796 45.7757 69.1248 45.7757C68.1699 45.7757 67.3962 46.5496 67.3962 47.5042V71.1526C67.3962 72.1072 68.1699 72.8811 69.1248 72.8811C70.0796 72.8811 70.8533 72.1072 70.8533 71.1526Z" fill="#F3BF19"/>
<path d="M116.271 57.2349H97.1663C96.4535 55.2217 94.5336 53.7755 92.2817 53.7755C89.4248 53.7755 87.1003 56.1028 87.1003 58.9634C87.1003 61.8239 89.4248 64.1512 92.2817 64.1512C94.5336 64.1512 96.4535 62.705 97.1663 60.6919H116.271C117.226 60.6919 118 59.918 118 58.9634C118 58.0088 117.226 57.2349 116.271 57.2349ZM92.2817 60.6942C91.3308 60.6942 90.5574 59.9177 90.5574 58.9634C90.5574 58.009 91.3308 57.2325 92.2817 57.2325C93.2324 57.2325 94.0059 58.009 94.0059 58.9634C94.0059 59.9177 93.2324 60.6942 92.2817 60.6942Z" fill="#F3BF19"/>
<path d="M112.819 68.3441C110.567 68.3441 108.647 69.7903 107.934 71.8032H102.217V65.8491C102.217 64.8945 101.443 64.1205 100.488 64.1205C99.5334 64.1205 98.7598 64.8945 98.7598 65.8491V83.3096C98.7598 84.2642 99.5334 85.0381 100.488 85.0381C101.443 85.0381 102.217 84.2642 102.217 83.3096V75.2605H107.934C108.647 77.2736 110.567 78.7198 112.819 78.7198C115.675 78.7198 118 76.3925 118 73.532C118 70.6714 115.675 68.3441 112.819 68.3441ZM112.819 75.2626C111.868 75.2626 111.094 74.4861 111.094 73.5317C111.094 72.5774 111.868 71.8012 112.819 71.8012C113.77 71.8012 114.543 72.5776 114.543 73.5317C114.543 74.4863 113.77 75.2626 112.819 75.2626Z" fill="#F3BF19"/>
<path d="M1.72852 60.6919H20.8335C21.5463 62.705 23.4663 64.1512 25.718 64.1512C28.5749 64.1512 30.8994 61.8239 30.8994 58.9634C30.8994 56.1028 28.5749 53.7755 25.718 53.7755C23.4661 53.7755 21.5461 55.2217 20.8335 57.2349H1.72852C0.773684 57.2349 0 58.0088 0 58.9634C0 59.918 0.773684 60.6919 1.72852 60.6919ZM25.7182 57.2325C26.6692 57.2325 27.4426 58.009 27.4426 58.9634C27.4426 59.9177 26.6692 60.6942 25.7182 60.6942C24.7673 60.6942 23.9939 59.9177 23.9939 58.9634C23.9939 58.009 24.7673 57.2325 25.7182 57.2325Z" fill="#F3BF19"/>
<path d="M5.1814 49.4381C7.43331 49.4381 9.35311 47.9919 10.066 45.9788H15.783V52.1307C15.783 53.0853 16.5566 53.8592 17.5115 53.8592C18.4663 53.8592 19.24 53.0853 19.24 52.1307V21.5117C19.24 20.4403 20.1119 19.5684 21.1835 19.5684H23.1282C24.0831 19.5684 24.8567 18.7945 24.8567 17.8399C24.8567 16.8853 24.0831 16.1114 23.1282 16.1114H21.1835C18.2056 16.1114 15.783 18.5341 15.783 21.5117V42.5217H10.066C9.35311 40.5086 7.43331 39.0624 5.1814 39.0624C2.32451 39.0624 0 41.3897 0 44.2502C0 47.1108 2.32451 49.4381 5.1814 49.4381ZM5.1814 42.5194C6.13208 42.5194 6.90554 43.2959 6.90554 44.2502C6.90554 45.2046 6.13208 45.9811 5.1814 45.9811C4.23048 45.9811 3.45703 45.2046 3.45703 44.2502C3.45703 43.2959 4.23048 42.5194 5.1814 42.5194Z" fill="#F3BF19"/>
</g>
<defs>
<clipPath id="clip0_0_410">
<rect width="118" height="118" fill="white"/>
</clipPath>
</defs>
</svg>
