<svg width="108" height="108" viewBox="0 0 108 108" fill="none" xmlns="http://www.w3.org/2000/svg">
<g clip-path="url(#clip0_0_370)">
<path d="M60.7517 89.6333H59.2361V85.5149C59.2361 83.4089 57.5229 81.6957 55.4169 81.6957H16.5322C14.4262 81.6957 12.713 83.4089 12.713 85.5149V89.6333H11.1974C9.09141 89.6333 7.37817 91.3465 7.37817 93.4525V97.0437C7.37817 99.1497 9.09141 100.863 11.1974 100.863H20.6078C21.4787 100.863 22.1845 100.157 22.1845 99.286C22.1845 98.415 21.4785 97.709 20.6078 97.709H11.1974C10.8304 97.709 10.5319 97.4105 10.5319 97.0435V93.4523C10.5319 93.0852 10.8304 92.7868 11.1974 92.7868H60.7515C61.1185 92.7868 61.417 93.0852 61.417 93.4523V97.0435C61.417 97.4105 61.1185 97.709 60.7515 97.709H27.8667C26.9958 97.709 26.2898 98.415 26.2898 99.286C26.2898 100.157 26.9958 100.863 27.8667 100.863H60.7515C62.8575 100.863 64.5707 99.1497 64.5707 97.0437V93.4525C64.5709 91.3467 62.8575 89.6333 60.7517 89.6333ZM56.0824 89.6333H15.8667V85.5149C15.8667 85.1479 16.1652 84.8494 16.5322 84.8494H55.4167C55.7837 84.8494 56.0822 85.1479 56.0822 85.5149V89.6333H56.0824Z" fill="#C9C9C9"/>
<path d="M106.604 86.0176C104.875 84.2885 102.138 84.1704 100.268 85.6577L56.7139 42.1033C57.2744 41.1792 57.314 40.0262 56.8346 39.0686L64.3828 31.5204L64.4384 31.5761C65.0312 32.1688 65.819 32.4951 66.6571 32.4951C67.4953 32.4951 68.2832 32.1688 68.8759 31.5761L71.6981 28.754C72.2908 28.1614 72.6171 27.3734 72.6171 26.5353C72.6171 25.6973 72.2908 24.9092 71.6981 24.3167L55.4375 8.05614C54.8448 7.46341 54.0569 7.13708 53.2187 7.13708C52.3806 7.13708 51.5926 7.46341 51 8.05614L48.1779 10.8781C47.5852 11.4708 47.2589 12.2586 47.2589 13.0969C47.2589 13.935 47.5852 14.723 48.1779 15.3156L48.2336 15.3712L40.6854 22.9194C39.5098 22.3307 38.0394 22.5239 37.0602 23.5033L30.6404 29.9232C29.661 30.9026 29.468 32.3728 30.0565 33.5481L22.5083 41.0963L22.4524 41.0404C21.2292 39.8174 19.2385 39.8172 18.0151 41.0404L15.1928 43.8626C13.9695 45.086 13.9695 47.0766 15.1928 48.3001L31.4535 64.5608C32.0652 65.1723 32.8685 65.4782 33.6722 65.4782C34.4756 65.4782 35.2793 65.1723 35.891 64.5606L38.7131 61.7385C39.9366 60.515 39.9366 58.5244 38.7131 57.301L38.6572 57.2451L46.2054 49.6969C46.6467 49.918 47.1287 50.0306 47.6117 50.0304C48.1764 50.0304 48.7396 49.876 49.2379 49.5739L92.7946 93.1308C92.1244 93.9712 91.758 95.0044 91.758 96.0951C91.758 97.3686 92.2539 98.5658 93.1544 99.4661C94.0838 100.396 95.3047 100.86 96.5254 100.86C97.7461 100.86 98.967 100.396 99.8964 99.4661L106.603 92.7591C107.504 91.8589 108 90.6616 108 89.3882C108 88.1147 107.504 86.9181 106.604 86.0176ZM53.2187 10.2974L69.4569 26.5355L66.6573 29.3351L50.4193 13.0969L53.2187 10.2974ZM50.4636 17.6013L56.3083 23.4459L62.1529 29.2906L54.7189 36.7242L43.0298 25.0351L50.4636 17.6013ZM33.6724 62.3198L17.4342 46.0816L20.2337 43.2821L36.4719 59.5203L33.6724 62.3198ZM47.612 46.8724L41.7023 40.9626C41.0866 40.3469 40.088 40.3469 39.4723 40.9626C38.8564 41.5783 38.8564 42.5769 39.4723 43.1926L43.8615 47.5818L36.4276 55.0157L24.7383 43.3266L32.1722 35.8927L34.2636 37.9842C34.8794 38.5999 35.8779 38.5999 36.4937 37.9842C37.1096 37.3684 37.1096 36.3699 36.4937 35.7541L32.8818 32.142L39.2791 25.7447L54.0093 40.4751L47.612 46.8724ZM51.5339 47.4105L54.5476 44.3969L98.0151 87.8643L96.5081 89.3711L95.0012 90.8778L51.5339 47.4105ZM104.374 90.5295L97.6668 97.2365C97.0378 97.8655 96.0139 97.8657 95.3847 97.2365C95.0799 96.9317 94.9119 96.5267 94.9119 96.0956C94.9119 95.6646 95.0799 95.2594 95.3847 94.9546L102.092 88.2476C102.406 87.9331 102.819 87.7757 103.233 87.7757C103.646 87.7757 104.059 87.9331 104.374 88.2476C105.003 88.8768 105.003 89.9005 104.374 90.5295Z" fill="#C9C9C9"/>
<path d="M11.3444 39.4226C11.6524 39.7305 12.0559 39.8845 12.4594 39.8845C12.863 39.8845 13.2665 39.7305 13.5745 39.4226C14.1904 38.8068 14.1904 37.8083 13.5745 37.1925L9.39325 33.0113C8.77752 32.3954 7.77915 32.3954 7.16322 33.0113C6.54728 33.6271 6.54728 34.6254 7.16322 35.2414L11.3444 39.4226Z" fill="#C9C9C9"/>
<path d="M8.914 45.5089C9.08908 44.6559 8.53959 43.8223 7.68635 43.6472L1.894 42.4583C1.0416 42.2831 0.207346 42.833 0.0322681 43.686C-0.14281 44.539 0.406682 45.3727 1.25992 45.5477L7.05227 46.7366C7.15921 46.7585 7.26574 46.7691 7.371 46.7691C8.10421 46.7691 8.76107 46.255 8.914 45.5089Z" fill="#C9C9C9"/>
<path d="M17.7993 33.5344C17.9525 34.2807 18.6091 34.7946 19.3423 34.7946C19.4474 34.7946 19.5541 34.784 19.6611 34.7621C20.5141 34.587 21.0638 33.7536 20.8887 32.9003L19.6999 27.108C19.525 26.255 18.691 25.7051 17.8381 25.8803C16.9851 26.0554 16.4354 26.8888 16.6105 27.7419L17.7993 33.5344Z" fill="#C9C9C9"/>
</g>
<defs>
<clipPath id="clip0_0_370">
<rect width="108" height="108" fill="white"/>
</clipPath>
</defs>
</svg>
