<svg width="117" height="117" viewBox="0 0 117 117" fill="none" xmlns="http://www.w3.org/2000/svg">
<path d="M7.74942 97.118H7.75559C8.7021 97.1146 9.46672 96.3445 9.46329 95.398L9.14062 5.1416C9.14062 4.19646 9.90935 3.42773 10.8545 3.42773H19.0354C19.9819 3.42773 20.7492 2.66038 20.7492 1.71387C20.7492 0.767355 19.9819 0 19.0354 0H10.8545C8.0193 0 5.71289 2.30641 5.71289 5.14777L6.03578 95.4103C6.03898 96.3548 6.80565 97.118 7.74942 97.118Z" fill="#C9C9C9"/>
<path d="M106.64 62.499C107.587 62.499 108.354 61.7317 108.354 60.7852V46.7154L110.902 43.5859C111.5 42.8519 111.389 41.7724 110.655 41.1749C109.921 40.5775 108.842 40.6877 108.244 41.4219L106.882 43.0944C106.803 43.0832 106.723 43.0754 106.64 43.0754H94.7197V37.3625H106.64C107.587 37.3625 108.354 36.5952 108.354 35.6487V21.5787L110.902 18.4492C111.5 17.7152 111.389 16.6357 110.655 16.0381C109.921 15.4406 108.842 15.5512 108.244 16.2852L106.882 17.9577C106.803 17.9465 106.723 17.9387 106.64 17.9387H101.253V5.14183C101.253 2.30664 98.9464 0.000228882 96.1112 0.000228882H89.7127C88.7662 0.000228882 87.9988 0.767584 87.9988 1.7141C87.9988 2.66061 88.7662 3.42796 89.7127 3.42796H96.1112C97.0563 3.42796 97.825 4.19669 97.825 5.14183V17.9387H94.7197V11.9973C94.7197 9.16211 92.4133 6.8557 89.5781 6.8557H85.71L85.7137 5.14183C85.7137 2.30664 83.4073 0.000228882 80.5721 0.000228882H25.8908C24.9443 0.000228882 24.177 0.767584 24.177 1.7141C24.177 2.66061 24.9443 3.42796 25.8908 3.42796H80.5723C81.5172 3.42796 82.2862 4.19669 82.2862 5.13817L82.0577 111.859C82.0577 112.804 81.2887 113.572 80.3438 113.572H11.2361C10.2951 113.572 9.52636 112.807 9.52225 111.863L9.46329 102.249C9.45758 101.303 8.69388 100.548 7.73891 100.546C6.7924 100.552 6.02984 101.324 6.03555 102.27L6.09451 111.881C6.10685 114.703 8.41326 117 11.2361 117H87.199C89.7221 117 91.8249 115.173 92.2577 112.772H106.64C107.587 112.772 108.354 112.005 108.354 111.059V106.095C108.354 105.149 107.587 104.381 106.64 104.381C105.694 104.381 104.926 105.149 104.926 106.095V109.345H92.358V96.7764H104.926V99.2398C104.926 100.186 105.694 100.954 106.64 100.954C107.587 100.954 108.354 100.186 108.354 99.2398V95.0625C108.354 94.116 107.587 93.3486 106.64 93.3486H94.7197V87.6357H106.64C107.587 87.6357 108.354 86.8684 108.354 85.9219V71.8522L110.902 68.7226C111.5 67.9886 111.389 66.9091 110.655 66.3116C109.921 65.714 108.842 65.8244 108.244 66.5586L106.882 68.2311C106.803 68.2199 106.723 68.2121 106.64 68.2121H94.7197V62.4993H106.64V62.499ZM95.528 53.2014L98.3444 56.0179C98.6666 56.3401 99.1029 56.5199 99.5563 56.5199C99.5853 56.5199 99.6145 56.5192 99.6438 56.5176C100.128 56.4929 100.579 56.2642 100.886 55.8881L104.927 50.9252V59.0713H92.3582V46.5029H104.107L99.426 52.2519L97.9519 50.7778C97.2825 50.1082 96.1973 50.1084 95.5282 50.7778C94.8587 51.4469 94.8587 52.5321 95.528 53.2014ZM95.528 28.0647L98.3444 30.8811C98.6666 31.2034 99.1029 31.3832 99.5563 31.3832C99.5853 31.3832 99.6145 31.3825 99.6438 31.3809C100.128 31.3562 100.579 31.1275 100.886 30.7513L104.927 25.7884V33.9346H92.3582V21.3662H104.107L99.426 27.1152L97.9519 25.6411C97.2825 24.9715 96.1973 24.9717 95.5282 25.6411C94.8587 26.3101 94.8587 27.3954 95.528 28.0647ZM87.199 113.572H85.1911C85.381 113.037 85.4852 112.461 85.4852 111.862L85.4888 110.145H88.9129V111.858C88.9129 112.803 88.144 113.572 87.199 113.572ZM95.528 78.3381L98.3444 81.1546C98.6666 81.4768 99.1029 81.6566 99.5563 81.6566C99.5853 81.6566 99.6145 81.6559 99.6438 81.6544C100.128 81.6297 100.579 81.4009 100.886 81.0248L104.927 76.0619V84.208H92.3582V71.6396H104.107L99.426 77.3886L97.9519 75.9145C97.2825 75.2449 96.1973 75.2452 95.5282 75.9145C94.8587 76.5836 94.8587 77.6688 95.528 78.3381ZM91.292 68.2119H90.6441C89.6976 68.2119 88.9303 68.9793 88.9303 69.9258V85.9219C88.9303 86.8684 89.6976 87.6357 90.6441 87.6357H91.292V93.3486H90.6441C89.6976 93.3486 88.9303 94.116 88.9303 95.0625V106.717H85.4964L85.703 10.2832H89.5781C90.5233 10.2832 91.292 11.0519 91.292 11.9971V17.9385H90.6441C89.6976 17.9385 88.9303 18.7058 88.9303 19.6523V35.6484C88.9303 36.5949 89.6976 37.3623 90.6441 37.3623H91.292V43.0752H90.6441C89.6976 43.0752 88.9303 43.8425 88.9303 44.7891V60.7852C88.9303 61.7317 89.6976 62.499 90.6441 62.499H91.292V68.2119Z" fill="#C9C9C9"/>
<path d="M22.9384 42.9235C24.9178 44.4749 27.344 45.2507 29.7701 45.2507C32.1965 45.2507 34.6226 44.4749 36.6018 42.9235C37.3468 42.3394 37.4772 41.2622 36.8934 40.5172C36.4057 39.8952 35.5744 39.7034 34.8795 39.9966L31.9351 30.1456C34.1151 29.7219 35.9135 29.0674 37.5751 28.4602C39.6084 27.7173 41.5503 27.0087 44.0096 26.7761V30.2424C41.8931 30.5192 39.7213 31.2612 38.4165 32.2093C37.6507 32.7657 37.4809 33.8374 38.0371 34.6032C38.3726 35.0648 38.8952 35.3098 39.4251 35.3098C39.7743 35.3098 40.1269 35.2033 40.431 34.9823C40.4772 34.949 40.5293 34.9151 40.5816 34.8815V49.6512C40.5816 53.8787 41.5617 57.0032 43.7594 59.7817C44.2498 60.4017 44.9655 60.7573 45.7232 60.7573C46.481 60.7573 47.1967 60.4017 47.6871 59.7817C49.8847 57.0032 50.8648 53.8787 50.8648 49.6512V34.8806C50.9158 34.9144 50.9677 34.948 51.0157 34.9828C51.7816 35.539 52.8534 35.3692 53.4096 34.6034C53.966 33.8375 53.796 32.7657 53.0302 32.2095C51.6292 31.1919 49.5845 30.481 47.4371 30.2276V26.7763C49.8964 27.0089 51.8383 27.7173 53.8716 28.4605C55.5332 29.0676 57.3316 29.7221 59.5116 30.1458L56.567 39.9969C55.8723 39.7039 55.041 39.8952 54.5531 40.5174C53.9692 41.2624 54.0997 42.3396 54.8447 42.9237C56.8243 44.4753 59.25 45.2509 61.6764 45.2509C64.1023 45.2509 66.5291 44.4749 68.5081 42.9237C69.253 42.3398 69.3835 41.2624 68.7997 40.5174C68.312 39.8954 67.4807 39.7037 66.7857 39.9969L63.9757 30.5957C64.097 30.5973 64.2152 30.6012 64.3388 30.6012C65.2853 30.6012 66.0527 29.8339 66.0527 28.8873C66.0527 27.9408 65.2853 27.1735 64.3388 27.1735C60.337 27.1735 57.7678 26.2347 55.0478 25.2407C52.7983 24.4187 50.4809 23.5755 47.4369 23.3369V16.5409H47.8407C48.7872 16.5409 49.5545 15.7735 49.5545 14.827C49.5545 13.8805 48.7872 13.1131 47.8407 13.1131H43.6054C42.6588 13.1131 41.8915 13.8805 41.8915 14.827C41.8915 15.7735 42.6588 16.5409 43.6054 16.5409H44.0091V23.3369C40.9651 23.5757 38.6477 24.419 36.3982 25.2407C33.6782 26.2347 31.109 27.1735 27.1072 27.1735C26.1607 27.1735 25.3933 27.9408 25.3933 28.8873C25.3933 29.8339 26.1607 30.6012 27.1072 30.6012C27.2306 30.6012 27.3488 30.5973 27.4701 30.5957L24.66 39.9969C23.9653 39.7039 23.134 39.8952 22.6461 40.5174C22.063 41.2622 22.1934 42.3394 22.9384 42.9235ZM59.6805 41.551L61.6768 34.8719L63.6731 41.551C62.3706 41.8867 60.983 41.8867 59.6805 41.551ZM47.4373 49.6516C47.4373 52.5671 46.9165 54.7281 45.7235 56.6319C44.5304 54.7279 44.0096 52.5668 44.0096 49.6516V33.7093C44.5839 33.6108 45.1677 33.5513 45.7235 33.5513C46.292 33.5513 46.8715 33.5998 47.4373 33.6871V49.6516ZM27.7738 41.551L29.7701 34.8719L31.7664 41.551C30.4639 41.8867 29.0766 41.8867 27.7738 41.551Z" fill="#C9C9C9"/>
<path d="M63.4334 66.2695H28.0135C27.067 66.2695 26.2996 67.0369 26.2996 67.9834C26.2996 68.9299 27.067 69.6973 28.0135 69.6973H63.4334C64.3799 69.6973 65.1473 68.9299 65.1473 67.9834C65.1473 67.0369 64.3799 66.2695 63.4334 66.2695Z" fill="#C9C9C9"/>
<path d="M65.1473 77.124C65.1473 76.1775 64.3799 75.4102 63.4334 75.4102H50.2938C49.3473 75.4102 48.5799 76.1775 48.5799 77.124C48.5799 78.0705 49.3473 78.8379 50.2938 78.8379H63.4334C64.3799 78.8379 65.1473 78.0705 65.1473 77.124Z" fill="#C9C9C9"/>
<path d="M42.867 77.124C42.867 76.1775 42.0997 75.4102 41.1532 75.4102H28.0135C27.067 75.4102 26.2996 76.1775 26.2996 77.124C26.2996 78.0705 27.067 78.8379 28.0135 78.8379H41.1532C42.0997 78.8379 42.867 78.0705 42.867 77.124Z" fill="#C9C9C9"/>
<path d="M58.8631 84.5508H32.5838C31.6373 84.5508 30.8699 85.3181 30.8699 86.2646C30.8699 87.2112 31.6373 87.9785 32.5838 87.9785H58.8631C59.8096 87.9785 60.577 87.2112 60.577 86.2646C60.577 85.3181 59.8096 84.5508 58.8631 84.5508Z" fill="#C9C9C9"/>
<path d="M58.8631 93.6914H32.5838C31.6373 93.6914 30.8699 94.4588 30.8699 95.4053C30.8699 96.3518 31.6373 97.1191 32.5838 97.1191H58.8631C59.8096 97.1191 60.577 96.3518 60.577 95.4053C60.577 94.4588 59.8096 93.6914 58.8631 93.6914Z" fill="#C9C9C9"/>
</svg>
