<svg width="98" height="98" viewBox="0 0 98 98" fill="none" xmlns="http://www.w3.org/2000/svg">
<path d="M96.5644 67.6755H80.9662C79.339 66.0924 77.237 64.884 74.6764 64.0721C71.162 62.9581 67.879 62.9727 66.9539 63.0042C66.0807 63.0289 65.2494 62.6469 64.7359 61.9672L57.3614 52.2116C56.153 50.612 54.3019 49.672 52.3553 49.5851V12.6328H71.8382L61.8809 43.0038H61.3306C60.7795 43.0038 60.2505 43.2425 59.8795 43.6588C59.4925 44.0929 59.3093 44.6779 59.3765 45.2637C59.9863 50.5651 66.2981 54.563 74.0589 54.563C81.8196 54.563 88.1315 50.5651 88.7413 45.2639C88.8087 44.6779 88.6255 44.0929 88.2383 43.6588C87.8673 43.2425 87.3383 43.0038 86.7872 43.0038H86.2519L76.742 12.6328H79.6346C82.2183 12.6328 84.3202 10.531 84.3202 7.93934C84.3202 5.35574 82.2183 3.25391 79.6346 3.25391H51.583C50.1362 1.2828 47.8041 0 45.177 0C42.55 0 40.2179 1.2828 38.771 3.25391H24.7503C23.9575 3.25391 23.3148 3.89646 23.3148 4.68945C23.3148 5.48245 23.9575 6.125 24.7503 6.125H37.4461C37.3087 6.70936 37.2337 7.31765 37.2337 7.94336C37.2337 8.56907 37.3087 9.17736 37.4461 9.76172H15.43C15.4256 9.76172 15.4212 9.76172 15.4168 9.76172H10.7206C9.72016 9.76172 8.90611 8.94767 8.90611 7.93934C8.90611 6.93886 9.72016 6.125 10.7206 6.125H18.272C19.0648 6.125 19.7076 5.48245 19.7076 4.68945C19.7076 3.89646 19.0648 3.25391 18.272 3.25391H10.7206C8.13685 3.25391 6.03502 5.35574 6.03502 7.94719C6.03502 10.531 8.13685 12.6328 10.7206 12.6328H12.4755L2.51621 43.0038H1.96764C1.41658 43.0038 0.887532 43.2425 0.516586 43.6588C0.129563 44.0929 -0.0538041 44.6779 0.0137623 45.2637C0.623391 50.5651 6.93539 54.563 14.6962 54.563C22.4569 54.563 28.7689 50.5651 29.3787 45.2636C29.4459 44.6775 29.2626 44.0925 28.8755 43.6584C28.5046 43.2425 27.9757 43.0038 27.4247 43.0038H26.8893L17.3791 12.6328H37.9999V67.2908H35.5518C33.7952 67.2908 32.0942 67.8143 30.6531 68.7826L22.8912 62.6924C20.6267 60.9154 17.6157 60.7225 15.203 61.9486L12.5442 60.5609C9.04182 58.7342 4.70341 60.0979 2.87375 63.5993C1.98544 65.2971 1.81202 67.2381 2.38529 69.0649C2.95797 70.89 4.20747 72.3822 5.90295 73.2665L26.5746 84.0522C26.8175 84.1782 27.0681 84.2854 27.3202 84.3826L33.4928 89.2257C33.7558 89.4319 34.068 89.532 34.3781 89.532C34.804 89.532 35.2252 89.3437 35.5085 88.9827C35.9979 88.3589 35.889 87.4564 35.2652 86.9672L15.8065 71.6992C14.9038 70.9911 14.3315 69.9741 14.1949 68.836C14.0582 67.6987 14.3734 66.5759 15.082 65.6749C16.5465 63.8131 19.2547 63.4887 21.119 64.9512L29.7864 71.7517C29.7887 71.7534 29.7908 71.7553 29.7931 71.7571L43.6431 82.6238C44.1344 83.0094 44.8189 83.033 45.3359 82.682C45.4433 82.609 53.7892 76.9811 61.8495 74.1345C61.8569 74.1318 61.8642 74.1293 61.8717 74.1265C64.1833 73.3115 66.4708 72.7254 68.533 72.5659C73.2626 72.2007 77.3976 73.419 80.1812 75.9963C82.6203 78.2543 83.9096 81.4399 83.9096 85.2093C83.9096 86.0023 84.5522 86.6448 85.3452 86.6448C86.1382 86.6448 86.7807 86.0023 86.7807 85.2093C86.7807 80.6194 85.1733 76.7049 82.1318 73.8893C78.7543 70.7627 73.8483 69.2747 68.3119 69.7035C66.3226 69.8572 64.1775 70.3525 62.0122 71.0498C60.5764 68.9824 58.3375 67.6401 55.8294 67.3505L52.3557 62.7726V52.4578C53.4138 52.5404 54.4112 53.0687 55.0714 53.9421L62.4457 63.6975C63.5216 65.122 65.2439 65.9341 67.0523 65.8732C68.0707 65.8372 77.116 65.7142 80.6253 71.8715C80.89 72.3361 81.3748 72.5964 81.8736 72.5964C82.1146 72.5964 82.3588 72.5357 82.5832 72.4078C83.2403 72.0333 83.4877 71.2186 83.1681 70.5462H95.1289V79.6196C95.1289 80.4126 95.7714 81.0552 96.5644 81.0552C97.3574 81.0552 98 80.4126 98 79.6196V69.1111C98 68.3183 97.3574 67.6755 96.5644 67.6755ZM15.2233 74.8908L7.23093 70.7206C6.21571 70.1912 5.46769 69.2977 5.12488 68.2051C4.7815 67.1107 4.88563 65.9475 5.41831 64.9292C6.51545 62.8289 9.11685 62.0112 11.2164 63.1063L12.8005 63.9331C11.6354 65.4318 11.1178 67.2925 11.3442 69.1784C11.5724 71.0785 12.5277 72.7759 14.0343 73.958L15.2233 74.8908ZM74.0589 51.6917C68.4853 51.6917 63.5706 49.1573 62.4432 45.8747H85.6744C84.5472 49.1573 79.6324 51.6917 74.0589 51.6917ZM64.9024 43.0038L74.2836 14.3899L83.2431 43.0038H64.9024ZM79.6346 6.125C80.6352 6.125 81.4491 6.93905 81.4491 7.94719C81.4491 8.94786 80.635 9.76172 79.6346 9.76172H74.7931C74.7887 9.76172 74.7843 9.76172 74.7799 9.76172H73.8447C73.8411 9.76172 73.8374 9.76172 73.8338 9.76172H52.9077C53.0452 9.17736 53.1202 8.56907 53.1202 7.94336C53.1202 7.31765 53.0452 6.70936 52.9077 6.125H79.6346ZM45.177 2.87109C47.9739 2.87109 50.2491 5.14653 50.2491 7.94336C50.2491 10.7402 47.9739 13.0156 45.177 13.0156C42.3802 13.0156 40.1048 10.7402 40.1048 7.94336C40.1048 5.14653 42.3802 2.87109 45.177 2.87109ZM14.696 51.6917C9.1224 51.6917 4.20786 49.1573 3.08028 45.8747H26.3116C25.1843 49.1573 20.2695 51.6917 14.696 51.6917ZM5.53756 43.0038L14.9207 14.3897L23.8804 43.0038H5.53756ZM40.871 14.6131C42.1126 15.4174 43.5906 15.8867 45.177 15.8867C46.764 15.8867 48.2424 15.417 49.4842 14.6121V51.1637V51.1671V67.2906H40.871V14.6131ZM59.1614 72.0729C52.8189 74.5682 46.816 78.2913 44.6015 79.7266L33.0937 70.6976C33.8588 70.3479 34.6952 70.1619 35.5518 70.1619H54.8034C56.4947 70.1619 58.0591 70.868 59.1614 72.0729Z" fill="#C9C9C9"/>
<path d="M96.5645 84.3097C95.7715 84.3097 95.1289 84.9522 95.1289 85.7452V89.7948L80.4622 90.2762C80.4094 90.2779 80.3573 90.2829 80.306 90.2902C80.3041 90.2903 80.302 90.2903 80.2999 90.2907L47.7827 95.083C47.5759 95.1134 47.3646 95.1289 47.1548 95.1289C46.1961 95.1289 45.2527 94.8031 44.4989 94.2117L40.083 90.7467C39.4592 90.257 38.5569 90.3661 38.0675 90.9899C37.578 91.6137 37.6869 92.5162 38.3107 93.0054L42.7269 96.4707C43.9842 97.4568 45.5568 98 47.155 98C47.5045 98 47.8567 97.9742 48.2016 97.9234L80.6381 93.1431L84.5924 93.0133C84.5931 93.0133 84.5939 93.0131 84.5947 93.0131L96.6117 92.6186C97.3858 92.5932 98.0002 91.9583 98.0002 91.1838V85.745C98 84.9522 97.3575 84.3097 96.5645 84.3097Z" fill="#C9C9C9"/>
</svg>
