<svg width="119" height="119" viewBox="0 0 119 119" fill="none" xmlns="http://www.w3.org/2000/svg">
<g clip-path="url(#clip0_0_403)">
<path d="M4.76678 119H84.4511C87.0796 119 89.2179 116.862 89.2179 114.233V102.291C89.2179 101.328 88.4377 100.547 87.4748 100.547C86.5118 100.547 85.7316 101.328 85.7316 102.291V114.233C85.7316 114.939 85.157 115.514 84.4511 115.514H75.2244V90.3752C75.2244 89.4125 74.4441 88.632 73.4812 88.632C72.5183 88.632 71.738 89.4125 71.738 90.3752V115.514H62.389L63.4024 111.945C63.6655 111.019 63.1277 110.055 62.2017 109.792C61.2762 109.529 60.3116 110.067 60.0485 110.993L58.7646 115.513H54.5106L59.9707 72.3535L60.5229 67.9883L64.6568 69.5893L65.8505 83.7025C65.9121 84.4291 65.7076 85.1524 65.2746 85.7392L62.2661 89.8185C60.8941 91.6791 60.6163 94.1509 61.5416 96.2694L62.7395 99.013C63.0175 99.6496 63.0663 100.368 62.8764 101.036L62.2714 103.166C62.0083 104.092 62.5459 105.056 63.4719 105.319C64.3976 105.581 65.362 105.045 65.6253 104.118L66.2303 101.989C66.6405 100.545 66.5352 98.9927 65.9347 97.6175L64.7367 94.8742C64.3084 93.8934 64.4369 92.7491 65.0721 91.8878L68.0806 87.8087C69.0154 86.5409 69.4575 84.9783 69.3248 83.4085L68.2742 70.9901L77.7541 74.6615C79.1861 75.2537 80.5513 76.2041 81.733 77.4152C81.0201 78.0753 80.5539 79.0647 80.5539 80.1095V84.2234C80.5539 86.2485 82.2015 87.8959 84.2266 87.8959H85.7316V94.1558C85.7316 95.1185 86.5118 95.8989 87.4748 95.8989C88.4377 95.8989 89.2179 95.1185 89.2179 94.1558V87.8959H98.9556C100.981 87.8959 102.628 86.2485 102.628 84.2234V80.1095C102.628 78.0844 100.981 76.4367 98.9556 76.4367H93.3342V56.4092H93.3995C95.7121 56.4092 97.5935 54.5278 97.5935 52.2151V52.1498H104.265L99.3244 61.0233C98.4612 61.1277 97.792 61.8612 97.792 62.7525C97.792 63.4675 98.2227 64.0811 98.8384 64.35C99.1338 66.3723 99.9824 68.2896 101.305 69.8689C102.397 71.1725 104.021 71.9203 105.76 71.9203H111.032C112.772 71.9203 114.395 71.1726 115.487 69.8687C116.81 68.2896 117.658 66.3723 117.954 64.35C118.569 64.0811 119 63.4675 119 62.7525C119 61.8614 118.331 61.1277 117.468 61.0233L112.442 51.9981C113.051 51.7261 113.476 51.1165 113.476 50.4067C113.476 49.444 112.696 48.6635 111.733 48.6635H97.5935V48.5982C97.5935 46.2856 95.7121 44.4041 93.3995 44.4041H93.3342V40.4341C93.3342 39.4714 92.5539 38.6909 91.591 38.6909C90.628 38.6909 89.8478 39.4714 89.8478 40.4341V44.4041H89.7825C87.4699 44.4041 85.5884 46.2856 85.5884 48.5982V48.6635H71.5898C70.6268 48.6635 69.8466 49.444 69.8466 50.4067C69.8466 51.0728 70.2205 51.6513 70.7698 51.9446L65.7145 61.0233C64.8513 61.1277 64.1822 61.8612 64.1822 62.7525C64.1822 63.4675 64.6129 64.0811 65.2285 64.35C65.3229 64.9954 65.4738 65.6297 65.6783 66.2461L55.629 62.3544L55.6253 57.7536C59.4823 54.8885 62.1643 50.6207 62.9183 45.7428C67.8322 46.1586 72.0188 42.2707 72.0188 37.3865C72.0188 34.8364 70.8734 32.55 69.0714 31.0107V24.4626C69.0714 10.9739 58.0976 0 44.6088 0C31.1201 0 20.1463 10.9739 20.1463 24.4626V31.0107C18.3445 32.5502 17.1991 34.8364 17.1991 37.3863C17.1991 42.2565 21.3651 46.1475 26.2799 45.7438C26.9997 50.6219 29.6489 54.9347 33.5789 57.7803V62.2812C32.0601 62.8743 11.7699 70.7986 10.1825 71.4187C10.1727 71.4226 10.163 71.4266 10.1532 71.4305C5.26323 73.4436 0 79.2105 0 87.1163V114.233C0 116.862 2.1383 119 4.76678 119ZM112.814 67.6304C112.387 68.1411 111.737 68.4339 111.032 68.4339H105.76C105.055 68.4339 104.405 68.1411 103.978 67.6304C103.214 66.7184 102.68 65.6418 102.409 64.4957H114.383C114.112 65.6416 113.578 66.7182 112.814 67.6304ZM108.537 52.1498L113.47 61.0094H103.323L108.256 52.1498H108.537ZM98.9556 79.9231C99.0583 79.9231 99.142 80.0067 99.142 80.1095V84.2234C99.142 84.3261 99.0585 84.4095 98.9556 84.4095C97.5666 84.4095 85.742 84.4095 84.2266 84.4095C84.1239 84.4095 84.0402 84.3261 84.0402 84.2234V80.1095C84.0402 80.0067 84.1237 79.9231 84.2266 79.9231H98.9556ZM89.0748 48.5979C89.0748 48.2077 89.3922 47.8902 89.7825 47.8902H93.3995C93.7897 47.8902 94.1072 48.2077 94.1072 48.5979V52.2149C94.1072 52.6052 93.7897 52.9226 93.3995 52.9226H89.7825C89.3922 52.9226 89.0748 52.6052 89.0748 52.2149V48.5979ZM85.5884 52.1498V52.2151C85.5884 54.5278 87.4699 56.4092 89.7825 56.4092H89.8478V76.4367H85.4952C83.8241 74.2956 81.6981 72.5971 79.4057 71.5791C80.3624 71.2397 81.2172 70.6566 81.8771 69.8684C83.1995 68.2893 84.0484 66.3721 84.3435 64.3498C84.9592 64.0808 85.3899 63.4672 85.3899 62.7523C85.3899 61.8612 84.7208 61.1274 83.8575 61.0231L78.9167 52.1496L85.5884 52.1498ZM74.6457 52.1498H74.9264L79.8596 61.0094H69.7125L74.6457 52.1498ZM80.7726 64.4957C80.5023 65.6418 79.9679 66.7182 79.2042 67.6304C78.7765 68.1411 78.1269 68.4339 77.422 68.4339H72.1499C71.445 68.4339 70.7953 68.141 70.3677 67.6302C69.6039 66.7181 69.0696 65.6416 68.7993 64.4957H80.7726ZM38.5614 115.514L42.7218 85.3392H46.4957L50.6563 115.514H38.5614ZM36.6716 103.695L33.5473 78.9992C34.4622 79.6263 35.6371 79.881 36.8338 79.5744L39.3933 83.9549L36.6716 103.695ZM41.6487 75.5577C43.6013 75.864 45.6548 75.894 47.6025 75.5916L49.5409 77.5298L47.0149 81.8531H42.2028L39.6768 77.5298L41.6487 75.5577ZM36.5056 64.2817C36.8715 63.7401 37.0653 63.097 37.0653 62.3932V59.761C41.7563 61.7747 47.3345 61.9053 52.1405 59.8056L52.1426 62.4083C52.1447 63.0965 52.3472 63.7443 52.706 64.2877L50.3423 66.6514L47.3568 69.6369C46.6319 70.3619 46.2298 71.3411 46.1777 72.2556C45.1253 72.3558 44.0692 72.3279 43.0344 72.2231C42.9712 71.2785 42.5605 70.3363 41.8611 69.6369L36.5056 64.2817ZM52.5178 103.489L49.8244 83.9552L52.383 79.5768C52.7086 79.6602 53.0458 79.7078 53.3907 79.7078C54.1921 79.7078 54.9573 79.4752 55.6104 79.0429L52.5178 103.489ZM55.7749 66.1494L57.173 66.691L56.3074 73.5326L53.7796 76.0604H53.7794C53.5711 76.2689 53.2376 76.2963 52.9568 76.0156L49.8219 72.8804C49.615 72.6745 49.6015 72.3228 49.8219 72.1025L55.7749 66.1494ZM68.5322 37.3863C68.5322 40.2686 66.0383 42.5531 63.1367 42.2618V32.5133C66.0253 32.2246 68.5322 34.4898 68.5322 37.3863ZM26.081 42.2621C23.1817 42.5533 20.6855 40.2709 20.6855 37.3865C20.6855 34.5221 23.1566 32.2211 26.081 32.5135V42.2621ZM26.1037 29.0155C25.3253 28.9686 24.4428 29.0348 23.6326 29.2287V24.4626C23.6326 12.8963 33.0425 3.48636 44.6091 3.48636C56.1754 3.48636 65.5851 12.8963 65.5851 24.4626V29.2287C64.7683 29.0337 63.8912 28.9688 63.1142 29.0155C62.651 22.1855 55.3775 17.9371 49.083 20.9909C45.8456 22.5614 43.3744 22.5623 40.1349 20.9909C33.8732 17.9526 26.57 22.1363 26.1037 29.0155ZM29.5673 43.0379C29.5673 41.4753 29.5673 31.2431 29.5673 29.6872C29.5673 25.0536 34.3931 22.0793 38.6132 24.1277C42.8134 26.1653 46.3978 26.1686 50.6047 24.1274C54.7365 22.1239 59.6506 24.9772 59.6506 29.687V42.9149C59.6506 46.7762 58.1608 50.5745 55.236 53.4958C45.9681 62.7537 29.5673 56.2795 29.5673 43.0379ZM33.3911 66.0978L39.3958 72.1025C39.6175 72.3247 39.5994 72.6763 39.3956 72.8804L36.2158 76.0602C36.001 76.2752 35.6526 76.2752 35.4379 76.0602L32.8477 73.4701L31.9845 66.6468L33.3911 66.0978ZM23.313 83.7025L24.5088 69.5667L28.6362 67.9549L34.653 115.514H30.3987L26.2871 101.036C26.0972 100.368 26.146 99.6496 26.4238 99.013L27.6219 96.2694C28.547 94.1509 28.2695 91.6791 26.8975 89.8187L23.889 85.7395C23.456 85.1524 23.2514 84.4291 23.313 83.7025ZM3.48636 87.1163C3.48636 80.3972 8.2529 75.99 11.4659 74.6605L20.89 70.9799L19.8388 83.4085C19.706 84.9781 20.1476 86.5409 21.0829 87.8087L24.0914 91.888C24.7266 92.7491 24.8552 93.8934 24.4268 94.8742L23.2287 97.6177C22.6281 98.9932 22.5233 100.546 22.9332 101.989L26.7743 115.514H17.4801V90.3752C17.4801 89.4125 16.6999 88.632 15.7369 88.632C14.774 88.632 13.9938 89.4125 13.9938 90.3752V115.514H4.76678C4.06091 115.514 3.48636 114.939 3.48636 114.233V87.1163Z" fill="#C9C9C9"/>
</g>
<defs>
<clipPath id="clip0_0_403">
<rect width="119" height="119" fill="white"/>
</clipPath>
</defs>
</svg>
