<svg width="100" height="100" viewBox="0 0 100 100" fill="none" xmlns="http://www.w3.org/2000/svg">
<path d="M93.9037 5.17755H75.0598C74.2508 5.17755 73.5949 5.83341 73.5949 6.64239C73.5949 7.45138 74.2508 8.10724 75.0598 8.10724H93.9037C95.6498 8.10724 97.0703 9.52775 97.0703 11.2738V66.9328H2.92969V11.2738C2.92969 9.52775 4.3502 8.10724 6.09629 8.10724H68.2236C69.0326 8.10724 69.6885 7.45138 69.6885 6.64239C69.6885 5.83341 69.0326 5.17755 68.2236 5.17755H6.09629C2.73477 5.17755 0 7.91232 0 11.2738V71.5787C0 74.9402 2.73477 77.675 6.09629 77.675H20.1199C20.9289 77.675 21.5848 77.0192 21.5848 76.2102C21.5848 75.4012 20.9289 74.7453 20.1199 74.7453H6.09629C4.3502 74.7453 2.92969 73.3248 2.92969 71.5787V69.8625H97.0703V71.5787C97.0703 73.3248 95.6498 74.7453 93.9037 74.7453H26.8914C26.0824 74.7453 25.4266 75.4012 25.4266 76.2102C25.4266 77.0192 26.0824 77.675 26.8914 77.675H36.1109L34.6646 86.0334H31.9916C29.5684 86.0334 27.5971 88.0047 27.5971 90.4279C27.5971 92.8512 29.5684 94.8225 31.9916 94.8225H68.0084C70.4316 94.8225 72.4029 92.8512 72.4029 90.4279C72.4029 88.0047 70.4316 86.0334 68.0084 86.0334H65.3354L63.8891 77.675H93.9035C97.265 77.675 99.9998 74.9402 99.9998 71.5787V11.2738C100 7.91232 97.2652 5.17755 93.9037 5.17755ZM62.3621 86.0334H58.3742C57.5652 86.0334 56.9094 86.6893 56.9094 87.4983C56.9094 88.3072 57.5652 88.9631 58.3742 88.9631H68.0084C68.8162 88.9631 69.4732 89.6201 69.4732 90.4279C69.4732 91.2358 68.8162 91.8928 68.0084 91.8928H31.9916C31.1838 91.8928 30.5268 91.2358 30.5268 90.4279C30.5268 89.6201 31.1838 88.9631 31.9916 88.9631H51.5359C52.3449 88.9631 53.0008 88.3072 53.0008 87.4983C53.0008 86.6893 52.3449 86.0334 51.5359 86.0334H37.6379L39.0842 77.675H60.916L62.3621 86.0334Z" fill="#C9C9C9"/>
<path d="M79.242 42.2416C78.6908 42.2416 78.1863 42.551 77.9363 43.0422L71.0234 56.6291L65.1898 45.1633C64.9398 44.6721 64.4354 44.3627 63.8842 44.3627C63.333 44.3627 62.8285 44.6721 62.5785 45.1633L59.4162 51.3787H54.3672C53.5582 51.3787 52.9023 52.0346 52.9023 52.8436C52.9023 53.6526 53.5582 54.3084 54.3672 54.3084H60.3145C60.8656 54.3084 61.3701 53.9991 61.6201 53.5078L63.8842 49.058L69.7178 60.5239C69.9678 61.0151 70.4723 61.3244 71.0234 61.3244C71.5746 61.3244 72.0791 61.0151 72.3291 60.5239L79.242 46.937L82.5852 53.508C82.8352 53.9993 83.3397 54.3086 83.8908 54.3086H89.8381C90.6471 54.3086 91.3029 53.6528 91.3029 52.8438C91.3029 52.0348 90.6471 51.3789 89.8381 51.3789H84.7891L80.5477 43.0424C80.2977 42.551 79.7932 42.2416 79.242 42.2416Z" fill="#C9C9C9"/>
<path d="M54.3678 37.9021H61.9692C62.7782 37.9021 63.434 37.2463 63.434 36.4373V21.0166C63.434 20.2076 62.7782 19.5518 61.9692 19.5518H54.3678C53.5588 19.5518 52.903 20.2076 52.903 21.0166V36.4373C52.903 37.2463 53.5588 37.9021 54.3678 37.9021ZM55.8326 22.4814H60.5043V34.9725H55.8326V22.4814Z" fill="#C9C9C9"/>
<path d="M75.9553 23.7422H68.3539C67.5449 23.7422 66.889 24.398 66.889 25.207V36.4373C66.889 37.2463 67.5449 37.9022 68.3539 37.9022H75.9553C76.7642 37.9022 77.4201 37.2463 77.4201 36.4373V25.207C77.4201 24.398 76.7642 23.7422 75.9553 23.7422ZM74.4904 34.9725H69.8187V26.6719H74.4904V34.9725Z" fill="#C9C9C9"/>
<path d="M89.8381 37.9021C90.647 37.9021 91.3029 37.2463 91.3029 36.4373V17.1504C91.3029 16.3414 90.647 15.6855 89.8381 15.6855H82.2367C81.4277 15.6855 80.7719 16.3414 80.7719 17.1504V36.4373C80.7719 37.2463 81.4277 37.9021 82.2367 37.9021H89.8381ZM83.7015 18.6152H88.3732V34.9725H83.7015V18.6152Z" fill="#C9C9C9"/>
<path d="M43.3395 32.2563H10.1364C9.32737 32.2563 8.67151 32.9121 8.67151 33.7211C8.67151 34.5301 9.32737 35.186 10.1364 35.186H43.3395C44.1485 35.186 44.8043 34.5301 44.8043 33.7211C44.8043 32.9121 44.1485 32.2563 43.3395 32.2563Z" fill="#C9C9C9"/>
<path d="M10.1364 42.9674H16.0781C16.8871 42.9674 17.543 42.3115 17.543 41.5026C17.543 40.6936 16.8871 40.0377 16.0781 40.0377H10.1364C9.32737 40.0377 8.67151 40.6936 8.67151 41.5026C8.67151 42.3115 9.32737 42.9674 10.1364 42.9674Z" fill="#C9C9C9"/>
<path d="M43.3395 40.0377H22.79C21.9811 40.0377 21.3252 40.6936 21.3252 41.5026C21.3252 42.3115 21.9811 42.9674 22.79 42.9674H43.3395C44.1484 42.9674 44.8043 42.3115 44.8043 41.5026C44.8043 40.6936 44.1484 40.0377 43.3395 40.0377Z" fill="#C9C9C9"/>
<path d="M43.3395 15.6855H10.1364C9.32737 15.6855 8.67151 16.3414 8.67151 17.1504C8.67151 17.9594 9.32737 18.6152 10.1364 18.6152H43.3395C44.1485 18.6152 44.8043 17.9594 44.8043 17.1504C44.8043 16.3414 44.1485 15.6855 43.3395 15.6855Z" fill="#C9C9C9"/>
<path d="M10.1364 26.3969H30.7266C31.5356 26.3969 32.1914 25.7411 32.1914 24.9321C32.1914 24.1231 31.5356 23.4672 30.7266 23.4672H10.1364C9.32737 23.4672 8.67151 24.1231 8.67151 24.9321C8.67151 25.7411 9.32737 26.3969 10.1364 26.3969Z" fill="#C9C9C9"/>
<path d="M43.3395 23.4672H37.4385C36.6295 23.4672 35.9736 24.1231 35.9736 24.9321C35.9736 25.7411 36.6295 26.3969 37.4385 26.3969H43.3395C44.1484 26.3969 44.8043 25.7411 44.8043 24.9321C44.8043 24.1231 44.1484 23.4672 43.3395 23.4672Z" fill="#C9C9C9"/>
<path d="M44.8043 49.1896C44.8043 48.3807 44.1485 47.7248 43.3395 47.7248H10.1364C9.32737 47.7248 8.67151 48.3807 8.67151 49.1896C8.67151 49.9986 9.32737 50.6545 10.1364 50.6545H43.3395C44.1485 50.6545 44.8043 49.9986 44.8043 49.1896Z" fill="#C9C9C9"/>
<path d="M10.1364 55.465C9.32737 55.465 8.67151 56.1209 8.67151 56.9299C8.67151 57.7389 9.32737 58.3947 10.1364 58.3947H25.7614C26.5703 58.3947 27.2262 57.7389 27.2262 56.9299C27.2262 56.1209 26.5703 55.465 25.7614 55.465H10.1364Z" fill="#C9C9C9"/>
</svg>
